<svg id="Layer_1" data-name="Layer 1" xmlns="http://www.w3.org/2000/svg" viewBox="0 0 347.31 385.88"><defs><style>.cls-1{fill:#14355b;fill-rule:evenodd;}.cls-2{font-size:91.1px;fill:#ed2024;font-family:BABELLBOLD, BABELL BOLD;}</style></defs><path class="cls-1" d="M298.08,22l-167.55-.48s-83.29,4.85-84,74.92c-.24,22.83,0,115.13,0,115.13s-1,39.16,42.37,39.49,125.9,0,125.9,0v59.36S218,328,194.68,327.85s-49.55-.24-49.55-.24-14.19.56-14.36-16.52-.24-21.78-.24-21.78l-83.77.24V404.2H218.14s80.31-6.13,80.18-75.16c-.1-59.59,0-118.48,0-118.48s-4.89-35.9-40-35.9H130.77v-6.23s-.53-1.06,3.35-2.39l27.29-9.33s4.86-1.58,5-6.23.48-41.89.48-41.89.69-1.9-2.64-4.3-14.12-9.58-14.12-9.58-1.44-.7-1.44-3.59V76.28s1.45-6.94,6.95-6.94h50.26s8.38.84,8.38,6.94V92.8s-.12.61-1.68,1.67-16.75,9.82-16.75,9.82-2.73,2.06-2.63,4.3,0,28,0,28H298.08Z" transform="translate(-46.41 -18.57)"/><text class="cls-2" transform="translate(328.72 385.88) rotate(-90)">SUPERIOR</text></svg>